Coordinates
version=1
nRows=22
nColumns=24
inDegrees=yes

Units are S.I. units (second, meters, Newtons, ...)
Angles are in degrees.

endheader
time	pelvis_tilt	pelvis_list	pelvis_rotation	pelvis_tx	pelvis_ty	pelvis_tz	hip_flexion_r	hip_adduction_r	hip_rotation_r	knee_angle_r	ankle_angle_r	subtalar_angle_r	mtp_angle_r	hip_flexion_l	hip_adduction_l	hip_rotation_l	knee_angle_l	ankle_angle_l	subtalar_angle_l	mtp_angle_l	lumbar_extension	lumbar_bending	lumbar_rotation
      4.31000000	     -6.29317086	     11.92897250	     -2.21779828	     -1.57334570	      0.64473729	      0.26931961	     16.97244186	    -11.06892225	      3.17133672	    -71.91417297	     -8.06695502	    -23.66503020	      0.00000000	     27.41988482	     15.72336463	     -3.44771426	    -29.18201378	     14.57223629	    -13.36673211	      0.00000000	     -9.89352173	    -13.27140512	     -5.76863333
      4.32000000	     -6.32026541	     11.15377552	     -1.16781696	     -1.56200705	      0.64832902	      0.26838043	     19.61277422	    -10.03041036	      2.92677766	    -72.52996777	     -5.44514903	    -23.37250195	      0.00000000	     25.35823107	     15.42125899	     -2.27918099	    -27.95281081	     15.26888367	    -12.21364505	      0.00000000	    -10.29907956	    -12.29083898	     -6.60206508
      4.33000000	     -6.34926182	     10.29909453	     -0.08667229	     -1.55067399	      0.65168005	      0.26754181	     22.12533437	     -8.97015779	      2.59038752	    -72.61317425	     -3.09732080	    -23.03196739	      0.00000000	     23.30871276	     15.00145349	     -0.93539919	    -26.69349543	     15.84165117	    -11.32364880	      0.00000000	    -10.64874842	    -11.27039792	     -7.37394666
      4.34000000	     -6.41875632	      9.38401363	      1.04157423	     -1.53937563	      0.65473673	      0.26680665	     24.53810078	     -7.92458420	      2.16281620	    -72.15091128	     -1.23898084	    -22.95694953	      0.00000000	     21.33862376	     14.47708287	      0.58031214	    -25.42882045	     16.25783748	    -10.65733625	      0.00000000	    -10.90050361	    -10.23114634	     -8.10901477
      4.35000000	     -6.46934684	      8.51565644	      2.13193094	     -1.52811662	      0.65744872	      0.26624444	     26.81970113	     -6.99305973	      1.74980550	    -71.21424369	      0.53417398	    -23.01930201	      0.00000000	     19.43904450	     13.91407833	      2.08059430	    -24.22624819	     16.69005332	    -10.14990636	      0.00000000	    -11.14060510	     -9.30028213	     -8.81925697
      4.36000000	     -6.48891149	      7.71859834	      3.18694321	     -1.51689847	      0.65982021	      0.26583612	     28.93653360	     -6.20976719	      1.35652675	    -69.80470585	      2.11893425	    -23.31653138	      0.00000000	     17.59880768	     13.34851099	      3.57960141	    -23.09246823	     17.10955534	     -9.84395287	      0.00000000	    -11.39728104	     -8.49058132	     -9.52739128
      4.37000000	     -6.61480054	      6.98625556	      4.25527680	     -1.50572400	      0.66171888	      0.26552711	     31.01189598	     -5.59144557	      0.96990797	    -67.92637855	      3.14309723	    -24.06641463	      0.00000000	     15.97242720	     12.79525712	      5.10444473	    -22.07433476	     17.53254016	     -9.55113591	      0.00000000	    -11.51724143	     -7.78701990	    -10.26599691
      4.38000000	     -6.67238951	      6.30209478	      5.28694663	     -1.49450703	      0.66330690	      0.26533230	     32.82791195	     -5.11531245	      0.57663920	    -65.57508635	      3.86228690	    -25.01271700	      0.00000000	     14.35661445	     12.22963107	      6.64276768	    -21.15315277	     17.93480039	     -9.40663541	      0.00000000	    -11.70628571	     -7.14852257	    -11.02624563
      4.39000000	     -6.57128364	      5.66643125	      6.26724834	     -1.48318000	      0.66469662	      0.26524279	     34.23907050	     -4.74742996	      0.21008993	    -62.70375330	      3.85316194	    -26.50263118	      0.00000000	     12.60472643	     11.65126913	      8.28856221	    -20.24045658	     18.06525002	     -9.64418977	      0.00000000	    -12.06823441	     -6.54790584	    -11.70283444
      4.40000000	     -6.53917770	      5.16924095	      7.18229852	     -1.47173561	      0.66556148	      0.26525590	     35.52475323	     -4.56532512	     -0.03875939	    -59.43997893	      3.55573513	    -28.12384676	      0.00000000	     10.99772550	     11.17327381	      9.90814185	    -19.45703940	     18.40099239	    -10.12216198	      0.00000000	    -12.32925784	     -6.12577896	    -12.42157870
      4.41000000	     -6.51315671	      4.72096173	      8.11162094	     -1.46010600	      0.66604119	      0.26528330	     36.56717965	     -4.54841778	     -0.35078750	    -55.75437052	      3.15684376	    -29.32372374	      0.00000000	      9.45177493	     10.69987372	     11.51532514	    -18.78162976	     18.74559988	    -10.54946496	      0.00000000	    -12.55285657	     -5.75456227	    -13.15983993
      4.42000000	     -6.45935920	      4.32279321	      9.07024594	     -1.44824812	      0.66617679	      0.26528254	     37.29998781	     -4.69584765	     -0.76156008	    -51.63265183	      2.76470476	    -30.00550654	      0.00000000	      7.92305010	     10.22400763	     13.03705656	    -18.20580005	     19.10021224	    -10.91933988	      0.00000000	    -12.76634097	     -5.41046388	    -13.92512560
      4.43000000	     -6.39439102	      4.02265347	     10.06122947	     -1.43615561	      0.66594691	      0.26525578	     37.72669206	     -5.01805326	     -1.21348118	    -47.09760885	      2.36071644	    -30.16353980	      0.00000000	      6.39681151	      9.79555227	     14.50039796	    -17.69059364	     19.56149862	    -11.28142890	      0.00000000	    -12.96467663	     -5.16090799	    -14.74512527
      4.44000000	     -6.29815302	      3.83630888	     11.11426546	     -1.42381011	      0.66539950	      0.26517167	     37.80296168	     -5.52617540	     -1.74375082	    -42.15930609	      1.96622582	    -29.69732480	      0.00000000	      4.82474249	      9.41042010	     15.86468287	    -17.19401410	     20.08712945	    -11.55521167	      0.00000000	    -13.17649475	     -5.01215413	    -15.63747000
      4.45000000	     -6.15825161	      3.78792275	     12.25918486	     -1.41120401	      0.66456969	      0.26501089	     37.50803679	     -6.23537596	     -2.38750065	    -36.86606660	      1.61979637	    -28.56080711	      0.00000000	      3.16797443	      9.06753223	     17.09590089	    -16.67748535	     20.63358175	    -11.60893979	      0.00000000	    -13.42790686	     -4.98286281	    -16.62965354
      4.46000000	     -5.94859371	      3.93363443	     13.48609122	     -1.39831258	      0.66349244	      0.26476627	     36.83800650	     -7.16807936	     -3.15563581	    -31.33600155	      1.34708684	    -26.73985094	      0.00000000	      1.35613986	      8.79784260	     18.18172225	    -16.09132583	     21.18969130	    -11.43585129	      0.00000000	    -13.76429912	     -5.11891358	    -17.71908592
      4.47000000	     -5.67896693	      4.32066919	     14.78968426	     -1.38515345	      0.66216785	      0.26443844	     35.87322006	     -8.35499406	     -4.10201869	    -25.78047195	      1.16650752	    -24.22800252	      0.00000000	     -0.61307428	      8.63471455	     19.08999898	    -15.44531016	     21.73415279	    -11.00182174	      0.00000000	    -14.20699153	     -5.46579341	    -18.90672174
      4.48000000	     -5.38095823	      4.92939781	     16.13812857	     -1.37167311	      0.66059281	      0.26411150	     34.73121739	     -9.73941948	     -5.26702561	    -20.43255975	      1.01414727	    -21.31064610	      0.00000000	     -2.72360336	      8.54101921	     19.81236795	    -14.72496651	     22.26321560	    -10.25387906	      0.00000000	    -14.71280527	     -6.03355421	    -20.17918411
      4.49000000	     -5.10763858	      5.76830052	     17.47164916	     -1.35791929	      0.65876153	      0.26383923	     33.60151881	    -11.30637916	     -6.68961773	    -15.61657856	      1.06302802	    -17.96317913	      0.00000000	     -4.88576697	      8.54598203	     20.24464501	    -14.00865872	     22.72127677	     -9.21694143	      0.00000000	    -15.25454192	     -6.84814452	    -21.53804492
      4.50000000	     -4.81497645	      6.64428130	     18.74966294	     -1.34385134	      0.65678430	      0.26370944	     32.49259436	    -12.81201054	     -8.33451141	    -11.46160694	      1.02472871	    -14.83902568	      0.00000000	     -7.09987528	      8.44983022	     20.55908287	    -13.30564627	     23.13477907	     -7.93271692	      0.00000000	    -15.81919342	     -7.70672750	    -22.78302827
      4.51000000	     -4.61043622	      7.50004660	     19.94234658	     -1.32954465	      0.65463696	      0.26376404	     31.63391729	    -14.22629800	    -10.16746133	     -8.22616747	      1.26670589	    -11.87766651	      0.00000000	     -9.18796168	      8.25664804	     20.74600828	    -12.68761871	     23.47110560	     -6.39419942	      0.00000000	    -16.28208293	     -8.60347066	    -23.91257397
      4.52000000	     -4.35376368	      8.21968310	     20.97932662	     -1.31501653	      0.65249686	      0.26406895	     30.88022572	    -15.36195688	    -11.92665001	     -5.87185099	      1.41278966	     -9.66716481	      0.00000000	    -11.20201018	      7.84663809	     20.76883052	    -12.21212958	     23.67676467	     -4.93188405	      0.00000000	    -16.76138290	     -9.37059525	    -24.87022527
